<svg width="33" height="33" viewBox="0 0 33 33" fill="none" xmlns="http://www.w3.org/2000/svg">
<path d="M17.4609 32.9998H15.523C14.9707 32.9312 14.4151 32.8811 13.8669 32.7891C10.4189 32.2128 7.41511 30.7302 4.94262 28.2606C1.23791 24.5561 -0.394005 20.0533 0.0807919 14.8396C0.398131 11.3401 1.76842 8.24653 4.11011 5.61867C7.2189 2.12803 11.1311 0.247532 15.8008 0.0199344C19.0565 -0.141482 22.1177 0.620404 24.9043 2.32012C29.1888 4.93184 31.8147 8.71625 32.7433 13.6596C32.8587 14.2779 32.9161 14.9082 33 15.5321V17.4691C32.9742 17.7015 32.9468 17.9331 32.9193 18.1648C32.5244 21.7159 31.1679 24.8482 28.7737 27.5035C26.2318 30.3235 23.0826 32.0837 19.3359 32.7496C18.7158 32.8537 18.0875 32.9158 17.4609 32.9998ZM8.2993 28.0144V27.6181C8.2993 26.2542 8.28234 24.8894 8.30899 23.5262C8.35017 21.3915 9.73419 19.4618 11.7505 18.7644C12.3754 18.5489 13.0497 18.4747 13.6416 18.3488C9.59207 16.1906 9.65102 11.2465 11.9031 8.80745C14.3328 6.17717 18.4162 6.05046 20.8661 8.58147C22.1443 9.90347 22.7604 11.4967 22.611 13.3271C22.4245 15.6031 21.2521 17.2721 19.2342 18.3883C19.6783 18.44 20.0836 18.4569 20.4761 18.5384C21.6562 18.7716 22.7197 19.405 23.4865 20.3315C24.2534 21.2579 24.6766 22.4207 24.6846 23.6231C24.7032 24.9661 24.6887 26.309 24.6895 27.6512V28.0152C29.2622 24.8345 31.8954 18.6934 30.0786 12.466C28.3377 6.50484 22.6369 2.25959 16.4274 2.33142C9.96755 2.40406 4.40241 6.70823 2.781 12.9357C1.18138 19.0969 3.92762 24.9959 8.2993 28.0144ZM16.5057 20.8112V20.7612C15.5819 20.7612 14.6574 20.7523 13.7336 20.766C13.4342 20.7634 13.1357 20.7992 12.8454 20.8725C11.4501 21.2599 10.6386 22.3487 10.6337 23.824C10.6281 25.5746 10.6378 27.326 10.6265 29.0773C10.6265 29.3195 10.7024 29.4316 10.9236 29.5228C14.6315 31.0466 18.3397 31.0501 22.0482 29.5333C22.3066 29.4276 22.3712 29.2912 22.3656 29.0362C22.3543 27.6641 22.3656 26.2856 22.3583 24.9112C22.3583 24.3422 22.3543 23.7716 22.2985 23.2066C22.179 22.0331 21.0373 20.8846 19.8551 20.8225C18.7416 20.766 17.6224 20.8112 16.5057 20.8112ZM16.5154 9.0867C15.7635 9.08227 15.0272 9.30059 14.3994 9.71408C13.7716 10.1276 13.2804 10.7177 12.9879 11.41C12.6954 12.1023 12.6146 12.8657 12.7558 13.6038C12.897 14.3419 13.2539 15.0217 13.7813 15.5573C14.3087 16.0929 14.983 16.4603 15.7192 16.6131C16.4553 16.7659 17.2203 16.6974 17.9174 16.416C18.6146 16.1347 19.2128 15.6532 19.6364 15.0323C20.06 14.4115 20.2901 13.6791 20.2976 12.9276C20.3056 11.917 19.9116 10.9446 19.2023 10.2243C18.493 9.504 17.5265 9.0948 16.5154 9.0867Z" fill="#B338FF"/>
</svg>
