<svg width="168" height="77" viewBox="0 0 168 77" fill="none" xmlns="http://www.w3.org/2000/svg">
<path d="M70.5933 39.3818L70.2866 47.3819C70.2866 47.3819 76.2511 48.3809 83.1321 40.8804C84.9652 39.2128 90.1647 32.5461 90.1647 32.5461L87.8699 31.8813L88.6348 30.3789L85.8853 30.8823C85.8853 30.8823 84.2003 30.3789 83.4388 31.2127C82.6774 32.0465 77.3369 39.2128 70.5933 39.3818Z" fill="#EFB58E"/>
<path d="M47.9796 60.212C47.9796 60.212 47.9796 72.0468 48.1312 73.2111C48.2828 74.3754 56.5421 76.0469 58.072 74.8787C57.9169 74.214 55.7772 72.3811 56.0838 71.213C56.3905 70.0449 56.6937 59.3782 56.6937 59.3782H50.0911C49.3183 59.3775 48.5698 59.6726 47.9761 60.212H47.9796Z" fill="#EFB58E"/>
<path d="M12.5066 24.55L12.0483 34.7172C12.0483 34.7172 17.6885 33.8834 17.5546 38.5597C17.4206 43.236 14.0295 43.5549 12.5066 44.0583C16.4829 46.5597 19.2361 48.0583 15.5664 52.3926C19.3876 55.0593 27.4919 60.0584 28.7151 60.3927C29.9383 60.7269 46.2984 59.5588 50.4263 59.7241C54.5542 59.8893 68.1611 58.725 68.9261 58.0564C69.691 57.3878 70.9142 26.3905 70.7627 24.892C70.6111 23.3934 53.3204 11.7161 52.7176 10.717C51.3428 12.3847 29.8043 30.1177 27.1852 30.7172C24.566 31.3166 12.5066 24.55 12.5066 24.55Z" fill="#B338FF"/>
<path d="M7.61371 20.3809C6.78883 22.1945 24.2805 31.0476 26.2686 30.6979C28.2568 30.3483 51.0361 11.8698 52.566 10.717C54.7057 12.2194 69.5218 23.0399 70.456 24.3847C70.6397 25.3731 70.7424 26.3774 70.7626 27.3857C70.7626 27.3857 74.8906 28.0505 75.6555 27.3857C76.4205 26.721 75.9587 25.3838 73.6673 23.2166C71.376 21.0495 54.0959 7.71604 52.1077 6.54793C50.1196 5.37981 37.4291 0.399958 35.5961 0.0464496C33.763 -0.307059 8.55139 18.402 7.61371 20.3809Z" fill="#221C26"/>
<path d="M22.2993 6.10609C22.2993 6.10609 25.1546 4.33086 26.3779 4.44229C27.6011 4.55372 30.1427 5.33759 30.5481 6.43654C30.9535 7.53549 30.6503 14.548 30.3471 15.1052C30.044 15.6623 26.5753 18.1023 25.7645 17.9909C24.9537 17.8795 22.123 16.3348 21.6895 15.8814C21.2559 15.4279 22.2993 6.10609 22.2993 6.10609Z" fill="#B338FF"/>
<path d="M35.3672 35.4625C35.5294 32.8881 37.6515 31.5855 40.7923 31.4625C43.9332 31.3396 46.6793 32.7959 46.4325 35.5471C46.1858 38.2983 43.0978 39.8814 40.6302 39.7969C38.1626 39.7123 35.2121 37.8795 35.3672 35.4625Z" fill="white"/>
<path d="M54.0251 35.4625C54.1872 32.8881 56.3129 31.5855 59.4537 31.4625C62.5946 31.3395 64.9565 33.2147 64.7414 35.962C64.5264 38.7094 61.7627 39.8814 59.3163 39.8045C56.8698 39.7277 53.8664 37.8794 54.0251 35.4625Z" fill="white"/>
<path d="M39.9248 35.5471C40.0094 37.549 40.9435 39.3243 42.8788 39.2128C44.8141 39.1014 46.2418 38.1024 46.344 35.6585C46.4462 33.2147 44.3065 32.1042 43.2877 32.1042C42.269 32.1042 39.8261 33.2147 39.9248 35.5471Z" fill="#221C26"/>
<path d="M58.2731 35.5471C58.3613 37.549 59.2954 39.3243 61.2307 39.2128C63.166 39.1014 64.5937 38.1024 64.6959 35.6585C64.7981 33.2147 62.6584 32.1042 61.6396 32.1042C60.6209 32.1042 58.1709 33.2147 58.2731 35.5471Z" fill="#221C26"/>
<path d="M26.2683 44.8806C25.8664 43.6548 22.7432 40.381 22.7432 39.2129C22.7432 38.0448 23.9664 36.2158 25.1896 36.381C26.4128 36.5462 27.7383 40.8921 27.636 42.2139C27.5338 43.5357 29.0143 44.7154 29.6242 45.7144C30.234 46.7135 36.6744 57.0459 43.5378 61.3802C50.4012 65.7145 55.4633 67.0479 58.0648 67.0479C60.6664 67.0479 62.8026 65.2112 64.1809 58.5483C65.4006 58.5483 66.7789 58.214 66.4722 59.0478C66.1655 59.8816 64.7907 65.1958 64.3325 66.3793C66.1655 66.7136 72.13 66.2141 75.0347 62.7136C77.9394 59.2131 81.1684 57.2111 83.6043 46.3792C83.6043 46.0487 83.911 45.7144 84.2141 44.7154C84.5173 43.7163 84.9791 41.5453 84.9791 41.5453C84.9791 41.5453 82.1096 40.285 82.3211 37.3186C82.5327 34.3522 84.6935 32.235 86.9672 32.5462C89.2409 32.8575 91.4018 35.2129 90.7885 37.8796C90.1751 40.5463 88.8038 41.2149 86.9672 41.7221C86.8157 43.2206 86.509 46.3868 86.2023 47.555C85.8956 48.7231 82.2295 59.7203 78.4047 63.386C74.58 67.0517 69.0773 71.3783 55.4703 69.046C49.9676 68.0469 41.7224 64.0507 40.0303 62.045C38.3383 60.0392 27.7982 49.5454 26.2683 44.8806Z" fill="white"/>
<path d="M25.0451 58.2139C26.2683 59.0477 27.1848 60.7115 33.7592 60.381C33.3009 64.3811 33.1493 72.0468 33.1493 72.0468C33.1493 72.0468 35.7473 74.5444 35.2891 75.5473C34.8308 76.5502 24.8935 75.213 24.7384 73.5454C24.5833 71.8777 25.0451 58.2139 25.0451 58.2139Z" fill="#EFB58E"/>
<path d="M14.8013 34.8823C16.86 35.1858 19.2359 39.2128 16.3312 42.2137C14.343 43.5471 12.0482 44.0466 10.825 43.0476C14.3501 44.7152 17.8576 47.7123 16.7895 50.379C15.7213 53.0457 10.3667 54.8786 7.92027 51.3781C7.92027 50.0447 9.75685 49.7143 9.75685 49.7143C9.75685 49.7143 3.33409 50.2138 2.26246 48.7152C1.19082 47.2167 -0.642238 44.0466 1.9593 41.3799C4.56083 38.7132 11.4383 34.3789 14.8013 34.8823Z" fill="#EFB58E"/>
<path d="M71.2701 27.9236C71.0798 31.3319 71.041 34.671 70.9493 38.0716C71.0022 39.2858 73.4557 38.4943 74.0938 38.1869C77.7281 36.6998 80.5024 33.7949 83.2591 30.9515C83.9993 30.2099 85.0216 30.4789 85.9029 30.2445C86.9604 29.9524 88.018 29.572 89.1389 29.7565C90.4855 29.987 88.4727 31.4126 90.1366 31.428C90.3868 31.4702 90.6406 31.4933 90.8909 31.5394C91.8251 31.7046 91.4867 32.7459 90.8909 33.184C90.1859 33.7603 91.4091 35.6931 91.3668 36.6422C91.5513 37.7754 91.3424 38.9428 90.7807 39.9173C90.219 40.8917 89.3448 41.6035 88.3282 41.9141C86.9181 42.2753 87.0979 43.7124 86.8934 44.9112C86.5057 51.3704 83.3049 57.261 79.9736 62.4752C76.2934 67.8547 69.6803 69.9911 63.7581 70.3907C61.9286 70.3907 60.099 70.2639 58.2766 70.141C57.0851 70.0603 57.0322 70.0987 56.9864 71.3783C56.8242 72.6386 57.9346 73.2188 58.4387 74.1833C60.2013 78.0257 50.331 75.409 48.8539 74.9518C46.3863 74.1487 47.6096 70.0949 47.4439 67.9239C47.4811 67.7225 47.4454 67.5132 47.3442 67.3398C47.243 67.1665 47.0842 67.0425 46.901 66.994C43.8553 65.6174 41.0062 63.7722 38.4407 61.5146C38.2046 61.3093 37.9142 61.1921 37.6123 61.1803C36.4984 61.2379 35.3809 61.2917 34.2741 61.4531C33.8898 64.7192 33.8828 67.9853 33.71 71.2784C33.6962 71.4689 33.7231 71.6603 33.7885 71.8377C33.8539 72.015 33.9562 72.1734 34.0872 72.3005C34.965 73.1957 37.5806 75.628 35.3104 76.2966C32.0874 76.5284 28.8518 76.1581 25.7433 75.2015C22.9902 74.4868 24.305 69.9642 24.0829 67.6626C24.1358 65.1496 24.2169 62.6366 24.2944 60.1275C24.3227 59.1784 23.8855 58.652 23.1453 58.2062C21.1007 56.9689 19.0984 55.6471 17.0785 54.3637C15.947 53.6798 15.2807 53.0727 13.9412 53.6414C12.5805 53.9718 11.0612 54.4099 9.77097 53.5799C8.72942 52.9711 7.82979 52.1101 7.14123 51.063C6.69707 49.503 4.13079 51.5549 0.989907 48.3041C0.69318 48.0059 0.453517 47.6466 0.284723 47.247C0.115929 46.8474 0.0213381 46.4153 0.00640018 45.9756C-0.233308 39.6816 6.31283 36.8804 10.8215 34.9938C10.9551 34.9628 11.0748 34.8823 11.1603 34.766C11.2457 34.6498 11.2917 34.5049 11.2903 34.3559C11.4736 31.6931 11.6886 29.0341 11.8719 26.3713C11.8191 25.6719 12.0975 24.6921 11.5441 24.1887C6.73937 21.1147 4.49387 20.7881 10.4055 16.4461C14.0117 13.791 17.5156 10.9591 21.2417 8.54214C21.915 7.70832 21.2628 6.06758 22.264 5.42588C28.0487 2.07524 26.3179 4.95326 28.8383 3.82741C30.4458 2.72462 32.0991 1.69867 33.71 0.595882C35.321 -0.50691 37.2351 0.153997 38.9237 0.718842C43.5698 2.2981 48.0537 4.34999 52.5694 6.31734C54.4589 7.10505 55.8196 8.86106 57.561 9.9677C60.018 11.8697 62.4538 13.7525 64.9108 15.6277C68.6122 18.3558 72.2501 21.1762 75.747 24.2041C76.6812 24.9918 77.1007 26.0254 76.8046 27.328C76.586 29.0341 72.4793 27.7277 71.2701 27.9236ZM13.0388 34.3598C16.5321 33.2531 18.2171 35.3703 18.2066 39.0937C18.2771 41.9756 16.8882 43.1437 14.544 44.0889C17.424 45.7912 19.2007 49.2648 16.659 52.1927C20.0784 54.456 23.5436 56.577 27.0264 58.725C29.9664 60.016 33.3716 59.7778 36.4772 59.5626C33.8281 56.7001 31.3739 53.6308 29.1344 50.3791C28.7819 52.8613 28.9829 55.4243 28.3836 57.845H28.2073C27.809 57.2302 27.8231 56.4886 27.8231 55.7624C27.8407 53.4915 27.883 51.2206 27.8901 48.9535C27.6645 47.5241 26.5963 46.3906 25.9865 45.111C25.211 43.8353 23.9842 42.9938 23.3109 41.5913C22.479 40.1696 22.0207 38.0217 23.1523 36.6691C23.4332 36.3867 23.7704 36.1792 24.1373 36.0631C24.5042 35.9469 24.8909 35.9253 25.2669 35.9998C25.6428 36.0743 25.9977 36.2429 26.3037 36.4924C26.6096 36.742 26.8583 37.0655 27.0299 37.4376C27.3395 38.2996 27.609 39.1781 27.8372 40.0697C28.2743 37.5337 27.6045 34.7287 28.3695 32.2887C29.8254 30.5173 28.6973 42.1178 28.8595 43.0131C30.0439 46.4213 39.8508 60.0814 43.2419 59.213C46.6719 58.9786 50.0912 58.5636 53.5318 58.4829C58.2413 58.2677 62.9438 57.6875 67.6639 57.6491C68.7391 57.6068 68.9788 57.3647 69.0105 56.2081C69.0622 52.2632 69.2326 48.3246 69.5217 44.3925C69.6909 38.087 69.7438 31.7776 70.0046 25.4721C70.0226 25.2945 69.996 25.115 69.9277 24.9526C69.8594 24.7902 69.752 24.651 69.6169 24.5499C67.4031 22.8592 65.1999 21.1532 62.9861 19.4586C59.736 16.9713 56.4846 14.4865 53.2321 12.0042C53.1743 11.9392 53.1048 11.8881 53.0278 11.8542C52.9508 11.8202 52.8682 11.8042 52.7852 11.8071C52.7023 11.81 52.6208 11.8317 52.546 11.871C52.4711 11.9102 52.4047 11.9661 52.3508 12.035C49.2734 15.2588 45.3923 17.3568 41.98 20.1042C39.1916 22.2905 36.4667 24.5768 33.6642 26.7401C30.3506 28.9419 26.6704 33.0918 22.6094 30.3943C19.7893 28.6998 16.8494 27.1628 13.9588 25.572C13.3631 25.1686 13.289 25.7372 13.2749 26.2829C13.1657 28.9918 12.9859 31.647 13.0388 34.3598ZM29.6808 4.81109C30.6009 5.42973 31.6302 5.72176 31.4645 7.08199C31.3165 9.3465 31.1813 11.6123 31.0591 13.8793C31.0374 14.3647 30.9077 14.8369 30.681 15.2553C30.4544 15.6738 30.1377 16.0257 29.7584 16.2809C27.9958 17.5297 26.0394 19.524 23.9173 17.9639C23.0043 17.1992 21.2417 16.9533 21.2417 15.424C21.2417 13.8947 21.3369 12.4499 21.418 10.9706C21.418 10.3327 21.2946 10.2713 20.8116 10.6094C17.7413 12.7228 14.759 14.9898 11.7168 17.1416C10.641 17.9005 9.631 18.7648 8.69934 19.7238C7.6418 20.742 9.96485 21.376 10.5218 21.8909C15.1045 24.4308 19.74 26.9246 24.2909 29.5759C25.4331 30.2368 26.547 30.2867 27.6081 29.5067C31.7959 26.4584 35.878 23.2691 39.8543 19.9389C42.8436 17.5797 45.847 15.2703 48.868 12.9341C50.3239 11.8044 51.7727 10.6593 53.2321 9.5335C53.9371 8.85722 52.6293 7.96576 52.1076 7.70063C47.0068 5.41436 41.9165 3.05123 36.6676 1.18763C35.1095 0.557458 31.3376 3.90426 29.6808 4.81109ZM70.6744 47.8776C70.4558 50.8901 70.4065 53.968 70.2655 56.9997C70.2655 58.5943 68.9224 58.9209 67.7239 59.0516C67.604 59.0574 67.4893 59.1067 67.398 59.1916C67.3067 59.2765 67.244 59.3922 67.2198 59.5204C66.7155 61.4974 66.0611 63.4253 65.2633 65.2841C64.3997 66.8211 67.9883 65.3532 68.584 65.4301C70.3387 65.125 72.0179 64.4334 73.5192 63.3974C78.7011 59.2399 81.7327 52.6 83.1991 45.9141C83.2837 45.5299 83.386 45.2071 83.7808 45.088C84.2003 44.4386 84.1509 43.4242 84.3624 42.648C84.4787 41.9564 84.4646 41.9679 83.883 41.7104C83.7784 41.6485 83.6564 41.6315 83.5409 41.6628C83.4254 41.6941 83.3248 41.7714 83.2591 41.8795C81.8138 43.3204 80.0865 44.454 78.4649 45.6259C76.1101 47.259 73.4134 47.3589 70.6744 47.8776ZM8.93904 51.528L8.88969 51.6433C9.47839 52.1966 10.3526 52.4118 11.0647 52.7537C11.9142 53.0919 12.725 52.7076 13.5534 52.5578C15.6156 52.3042 17.4945 49.211 16.021 47.3128C14.5651 45.1264 11.9037 44.8344 10.1376 43.1475C9.53831 42.0601 11.1458 42.4789 11.597 42.7633C12.7144 43.3819 13.9306 42.8478 15.0269 42.452C17.5897 41.8488 18.0832 35.7431 15.0481 35.6701C10.4337 36.0543 5.54788 37.8295 2.57973 41.9487C-1.89716 49.0265 6.58074 49.9603 11.0717 48.1889C12.9224 47.4204 11.9424 50.3214 10.7862 50.5712C10.5606 50.6596 10.3491 50.7864 10.0812 50.9247C10.3245 51.123 10.5355 51.3647 10.7051 51.6394C10.1517 51.9353 9.51364 51.6202 8.93904 51.528ZM61.6078 69.2995C75.458 69.1804 81.701 61.407 85.5786 47.6778C85.8782 46.5942 85.6491 46.3214 84.6021 46.3906C83.8055 46.3906 83.9535 47.4742 83.7491 48.0659C82.0147 55.0439 78.4896 62.3215 72.2713 65.5531C71.1503 66.0833 62.824 68.9229 63.677 65.9373C64.5665 64.0893 65.2618 62.1378 65.7498 60.1198C66.1411 59.0938 65.0448 58.8133 64.6923 59.7355C63.4867 62.9171 62.6971 67.5627 58.7454 67.5665C47.7929 67.3898 38.2363 59.1976 31.8135 50.1063C30.3118 47.9814 28.9547 45.7374 27.5376 43.5433C27.3049 43.1821 27.0546 43.0822 26.7585 43.2705C25.077 43.5164 32.4939 52.9766 33.146 53.9488C39.9001 63.3859 50.5883 69.311 61.6078 69.2995ZM34.2176 74.7789L34.3058 74.5714C33.6466 73.6376 32.3493 72.9806 32.3141 71.6972C32.2788 70.4138 32.3458 69.1227 32.4234 67.8547C32.5503 65.7913 32.7195 63.7279 32.8816 61.6645C32.9028 61.384 32.8076 61.2802 32.5644 61.2533C30.5339 61.0036 28.3871 61.5031 26.5223 60.3888C25.3026 59.5857 25.56 67.9777 25.3872 68.9844C25.5 69.8682 25.1405 73.7414 26.0923 73.726C28.7673 74.3349 31.4862 74.6872 34.2176 74.7789ZM70.967 40.1965C70.9423 41.9026 70.8295 44.1735 70.7943 46.064C70.8084 46.1284 70.8376 46.1877 70.879 46.2361C70.9204 46.2846 70.9725 46.3206 71.0304 46.3406C73.6559 46.4625 76.2488 45.6698 78.4332 44.0774C79.6529 43.1668 80.8197 42.1562 81.9935 41.1956C82.6281 40.6691 82.5963 40.6384 82.2262 39.8776C80.5059 36.7575 82.6598 33.4606 85.2366 31.9774C83.9465 31.3127 82.7691 32.9919 81.99 33.9448C79.2827 37.5567 75.3311 40.1888 70.967 40.1811V40.1965ZM26.9594 16.3347L27.1322 16.4115C27.8936 16.0273 28.5634 15.4548 29.2931 15.0052C29.4328 14.932 29.5523 14.8199 29.6396 14.6802C29.7268 14.5406 29.7787 14.3783 29.7901 14.2098C29.9487 12.3616 30.1109 10.5172 30.266 8.6651C30.266 8.25395 30.3048 7.38939 29.6985 7.71985C28.3307 8.31543 26.8361 9.0724 25.4049 8.26548C24.7351 7.93887 24.0759 7.59689 23.4096 7.25875C22.8386 6.97056 22.7046 7.02051 22.6658 7.71985C22.5178 10.1368 22.3133 12.5537 22.3133 14.9783C22.4297 15.889 24.2557 16.3616 24.9149 16.9764C25.6798 17.4567 25.8455 17.3606 25.8843 16.3846C25.9654 14.2521 26.057 12.1233 26.1487 9.99459C26.1487 9.61035 26.2156 9.06856 26.6316 9.01861C27.6186 9.08393 26.7479 15.1282 26.9594 16.3347ZM75.0314 26.7094C75.1583 26.6287 75.5003 26.5288 75.5285 26.3674C75.5207 26.1553 75.4635 25.9487 75.3624 25.7673C75.2613 25.5858 75.1195 25.4353 74.9504 25.3299C72.2043 23.1551 69.4829 20.9418 66.7791 18.717C62.9462 15.8224 59.1038 12.9469 55.252 10.0907C54.5752 9.57576 54.48 9.8409 54.0605 10.3981C54.0184 10.4459 53.9875 10.5039 53.9702 10.5675C53.9529 10.631 53.9498 10.6981 53.9612 10.7632C53.9726 10.8282 53.9981 10.8894 54.0356 10.9415C54.0732 10.9937 54.1216 11.0353 54.1768 11.0628C58.333 14.3289 62.6371 17.3376 66.8179 20.5845C68.228 22.0754 71.8201 23.2435 71.4006 25.7219C71.1785 26.5557 74.2735 26.4366 75.0314 26.7132V26.7094ZM57.1556 74.6982L57.219 74.5445C56.6585 73.5877 55.5798 72.9575 55.6539 71.701C55.5375 71.1131 55.95 70.091 55.3014 69.8221C53.3097 69.2649 51.325 68.6885 49.3298 68.1429C48.3957 68.1659 48.9773 71.2169 48.8786 72.0123C48.9456 73.6338 49.2311 73.9604 50.7152 74.1602C52.8549 74.5022 54.9876 74.8365 57.1556 74.6982ZM49.1359 60.3119C49.2628 61.2264 48.8116 63.7701 49.4602 64.0545C51.5155 64.9714 53.6381 65.6976 55.8055 66.2255V59.8777L49.1359 60.3119ZM57.4552 59.6318C57.353 61.7759 57.2226 63.8086 57.1944 65.9258C57.1944 66.0641 57.3036 66.31 57.4023 66.31C61.0226 67.5396 62.475 62.9517 63.2858 60.0199C63.3845 59.4435 63.3069 59.2898 62.7781 59.309C61.005 59.4166 59.2213 59.4243 57.4552 59.6318ZM86.6009 41.0111L86.6185 40.9189C92.7522 41.2186 90.8028 31.0091 85.2543 33.2339C81.4789 35.4434 82.0676 40.7537 86.6009 41.0111ZM26.8995 41.6144C26.681 40.3041 26.3954 36.0774 24.365 37.3454C22.5389 39.0015 24.5342 41.1341 25.5494 42.6096C26.0147 43.3051 26.8325 42.2715 26.8995 41.6144ZM23.7833 5.96767V6.1598C26.124 7.50851 27.0229 7.75827 29.3988 6.34808C29.3988 6.34808 29.3988 6.29428 29.3988 6.20591C27.5164 5.27987 25.7045 4.66507 23.7833 5.96767ZM47.4404 60.8729C46.4604 60.9767 45.3887 60.6424 44.5286 61.0381C45.3112 61.9296 46.4569 62.2716 47.4404 62.9594V60.8729ZM86.34 43.0169C86.3153 42.6096 86.34 42.3176 85.9875 42.2484C85.5539 42.1523 85.2825 42.2484 85.1838 42.6749C85.1838 43.2743 84.4047 45.0918 85.1838 45.2186C86.2202 45.5952 86.0827 43.6125 86.34 43.0169ZM87.9475 30.7786C87.5668 31.0399 86.8335 31.0283 86.83 31.5471C87.0732 31.6393 87.3764 31.8391 87.5632 31.7507C87.8135 31.6355 87.9757 31.2973 88.159 31.036C88.1695 31.0207 88.025 30.8746 87.9475 30.7786Z" fill="black"/>
<path d="M59.6234 40.4308C56.969 40.6306 53.4192 39.2781 53.4403 35.8583C52.8939 29.5028 62.7537 29.4413 64.9533 33.7718C66.4586 37.572 63.1309 41.0303 59.6234 40.4308ZM61.2696 38.5442C65.2213 38.2714 64.7172 32.7497 60.9946 32.719C58.1005 32.6959 58.0265 38.7094 61.2696 38.5442ZM59.0946 39.1974C57.1628 36.8458 56.8456 34.5403 58.8267 32.1042C56.7116 31.6469 54.5966 32.9457 54.4978 35.3972C54.3745 36.5883 54.7587 37.7027 55.8621 38.2675C56.9231 38.7401 57.9031 39.3665 59.0946 39.1974Z" fill="black"/>
<path d="M40.9047 40.3387C31.2705 40.2119 33.5513 27.9583 43.9363 31.3396C49.7492 33.8334 46.4074 41.1418 40.9047 40.3387ZM40.5204 35.7278C40.5186 36.2264 40.6404 36.7163 40.8729 37.1456C41.0557 37.4728 41.2979 37.7557 41.5846 37.9771C41.8713 38.1984 42.1966 38.3536 42.5403 38.4329C43.0387 38.5441 43.5555 38.5044 44.0346 38.3182C44.5137 38.1319 44.9369 37.8061 45.2582 37.3762C45.5671 36.936 45.7561 36.4099 45.8035 35.8581C45.8509 35.3063 45.7547 34.7511 45.5261 34.2561C44.4016 31.916 41.3524 32.4732 40.665 34.8555C40.579 35.1333 40.5303 35.4232 40.5204 35.7162V35.7278ZM40.464 39.0285C39.7467 38.1517 39.3357 37.0273 39.3035 35.853C39.2713 34.6787 39.6198 33.5296 40.2878 32.6077C40.5416 32.2465 40.4852 32.0889 40.0692 32.062C34.3233 31.989 34.7392 39.4165 40.464 39.0169V39.0285Z" fill="black"/>
<path d="M50.6907 50.9785C41.952 50.4444 46.1821 39.7316 46.3266 45.8757C46.2032 48.4117 48.8647 49.5453 50.8106 49.6106C53.3205 49.6567 54.385 46.8363 54.6882 44.5154C54.6946 44.4399 54.7155 44.3667 54.7495 44.3005C54.7835 44.2343 54.8299 44.1766 54.8856 44.1312C55.1711 43.9007 55.4708 43.8084 55.5906 44.3541C55.8585 47.5625 54.0255 51.1937 50.6907 50.9785Z" fill="black"/>
<path d="M60.1553 26.0522C61.1811 26.1368 62.4783 26.2367 63.2503 26.9283C63.3329 27.0034 63.3906 27.1059 63.4149 27.22C63.4391 27.3342 63.4285 27.4539 63.3846 27.5609C63.3407 27.6679 63.266 27.7563 63.1717 27.8128C63.0775 27.8692 62.9689 27.8906 62.8625 27.8736C62.5295 27.7995 62.2001 27.7072 61.8755 27.5969C61.3816 27.3904 60.8523 27.3038 60.3244 27.3429C59.7966 27.3821 59.283 27.5461 58.8192 27.8236C58.4456 28.0734 57.656 28.2348 57.4092 27.7929C57.3387 26.3596 59.1788 26.0868 60.1553 26.0522Z" fill="black"/>
<path d="M40.524 26.2328C41.1091 26.0791 44.7048 27.0436 43.2806 27.8544C42.1314 27.9427 41.0492 27.2357 39.9106 27.5585C35.0424 29.7372 37.6228 26.0868 40.524 26.2328Z" fill="black"/>
<path d="M86.675 39.9199C82.8925 39.9199 83.4565 34.1562 86.7419 34.0332C90.1049 34.1562 90.5314 40.0505 86.675 39.9199ZM88.2507 37.1495C88.2507 34.6672 85.1239 35.1322 85.0534 37.3954C85.1944 39.2551 88.4305 39.1898 88.2507 37.1302V37.1495Z" fill="black"/>
<path d="M94.9165 37.5453L100.877 32.8806C100.877 32.8806 100.268 19.7162 101.184 18.5481C102.101 17.38 103.782 15.2128 106.824 15.3819C109.867 15.551 160.184 15.5471 161.714 15.5471C163.244 15.5471 167.217 17.2148 167.065 24.8805C166.913 32.5463 166.91 53.5454 166.607 56.0469C166.304 58.5483 165.384 61.7146 160.491 61.215C155.598 60.7155 107.589 61.215 106.204 61.215C104.819 61.215 100.701 60.3812 100.701 55.8817C100.701 51.3821 100.088 43.5473 100.395 42.214C99.0479 40.8806 94.9165 38.2139 94.9165 37.5453Z" fill="white"/>
<path d="M133.763 14.5863C143.514 14.5273 153.267 14.5478 163.022 14.6477C166.765 14.6477 167.678 19.2203 167.788 22.5095C167.992 26.9744 168.087 31.4355 167.897 35.9043C167.781 42.6863 167.597 49.4683 167.41 56.2695C167.463 61.5337 162.923 62.1831 159.116 61.8795C147.423 61.8411 135.727 61.8104 124.041 62.1869C117.185 62.1869 110.251 62.5289 103.479 61.161C101.494 60.7537 100.454 59.4472 100.218 57.2762C99.8234 53.6643 99.9362 50.0408 99.975 46.4174C99.7882 45.1109 100.631 42.7132 99.4251 41.9678C91.5253 37.3299 92.9882 37.791 99.7283 32.838C99.8044 32.7693 99.867 32.6845 99.9124 32.5888C99.9578 32.493 99.9851 32.3883 99.9926 32.2809C100.091 30.4903 100.187 28.6958 100.232 26.9014C100.585 21.9715 98.8223 15.4892 105.118 14.7784C114.657 14.4633 124.214 14.6439 133.763 14.5863ZM119.564 15.9811C115.482 15.9081 111.393 15.9311 107.307 16.008C104.811 15.8812 101.967 16.8994 101.614 20.1617C101.209 24.277 101.635 28.4077 101.477 32.5345C101.431 34.4557 97.652 36.0619 96.316 37.3991C94.7191 38.4596 101.801 40.0312 101.233 42.3098C101.258 61.453 99.6683 60.5769 117.59 60.4962C128.13 60.5654 139.093 60.3387 148.103 60.3195C151.646 60.4885 155.199 60.3656 158.749 60.2618C161.132 59.9429 164.798 60.7537 165.57 57.476C166.353 46.9323 166.811 36.2963 166.434 25.7026C165.905 18.4018 166.734 15.935 158.975 15.9734C146.478 16.0041 131.969 16.5574 119.564 15.9811Z" fill="black"/>
<path d="M110.515 27.4165V31.259H115.926V27.4165H114.47V25.7258H119.24V27.4165H117.801V37.6145H119.24V39.309H114.47V37.6145H115.926V32.9497H110.515V37.6145H111.985V39.309H107.226V37.6145H108.636V27.4165H107.226V25.7258H111.985V27.4165H110.515Z" fill="#B338FF"/>
<path d="M133.087 32.4693C133.109 33.7566 132.82 35.0277 132.248 36.1542C131.709 37.2081 130.906 38.072 129.932 38.6442C128.897 39.241 127.74 39.5424 126.569 39.5202C125.412 39.5433 124.27 39.2289 123.262 38.6096C122.307 38.0124 121.524 37.1351 121.003 36.0774C120.455 34.9573 120.177 33.7039 120.195 32.4347C120.176 31.1818 120.459 29.9455 121.017 28.8497C121.551 27.8162 122.336 26.9638 123.287 26.3866C124.293 25.7828 125.427 25.4768 126.576 25.499C127.761 25.4755 128.932 25.7908 129.97 26.4135C130.932 26.9999 131.725 27.8659 132.262 28.915C132.816 30.0014 133.1 31.2265 133.087 32.4693ZM126.643 37.7104C127.455 37.7239 128.252 37.4708 128.931 36.9842C129.597 36.5058 130.135 35.8427 130.489 35.063C130.854 34.2622 131.043 33.3791 131.039 32.4847C131.045 31.5821 130.845 30.6921 130.457 29.8948C130.087 29.1198 129.531 28.468 128.849 28.0082C128.153 27.5432 127.35 27.3033 126.533 27.3165C125.744 27.3022 124.967 27.5356 124.295 27.989C123.643 28.4386 123.121 29.0808 122.79 29.841C122.427 30.6573 122.243 31.5545 122.254 32.4616C122.239 33.4036 122.422 34.3369 122.79 35.1898C123.121 35.9611 123.653 36.6092 124.32 37.0534C125.022 37.5053 125.827 37.733 126.643 37.7104Z" fill="#B338FF"/>
<path d="M144.621 25.7258H148.935V27.4165H147.441V37.6145H148.946V39.309H144.268V37.6145H145.738V27.4165L141.448 39.4396H141.074L136.844 27.4165V37.6145H138.216V39.309H133.774V37.6145H135.286V27.4165H133.774V25.7258H138.043L141.325 35.0208L144.621 25.7258Z" fill="#B338FF"/>
<path d="M159.567 29.6874V27.4165H154.237V31.4665H158.873V33.1572H154.237V37.6145H159.567V35.1399H161.104V39.309H150.751V37.6145H152.355V27.4165H150.751V25.7258H161.104V29.6874H159.567Z" fill="#B338FF"/>
<path d="M115.715 46.7862C115.715 48.3847 115.273 49.5848 114.389 50.3866C113.506 51.1884 112.185 51.5906 110.427 51.5932H107.254V50.4404H108.4V43.4279H107.254V42.2751H110.508C112.261 42.2751 113.568 42.6363 114.428 43.3587C115.288 44.0811 115.717 45.2236 115.715 46.7862ZM114.305 46.8515C114.327 46.1865 114.196 45.526 113.924 44.9303C113.65 44.4151 113.22 44.0198 112.708 43.8121C112.004 43.5346 111.259 43.4042 110.512 43.4279H109.687V50.4289H110.501C111.819 50.4289 112.783 50.1407 113.392 49.5643C114 48.988 114.305 48.0786 114.305 46.8362V46.8515Z" fill="#221C26"/>
<path d="M125.494 46.8977C125.508 47.7837 125.309 48.6582 124.915 49.4337C124.545 50.1576 123.992 50.7508 123.322 51.1436C122.611 51.5556 121.815 51.7632 121.01 51.7469C120.215 51.7631 119.431 51.5468 118.739 51.1206C118.084 50.7108 117.547 50.1074 117.192 49.3799C116.816 48.6094 116.625 47.7474 116.638 46.8746C116.624 46.0138 116.819 45.1641 117.202 44.4116C117.568 43.7008 118.108 43.1143 118.761 42.7171C119.453 42.3015 120.233 42.0909 121.024 42.1061C121.839 42.0894 122.644 42.3067 123.357 42.7363C124.019 43.1383 124.564 43.733 124.933 44.4539C125.312 45.2015 125.505 46.0438 125.494 46.8977ZM121.062 50.5019C121.621 50.5114 122.169 50.3374 122.635 50.0024C123.09 49.6687 123.455 49.2083 123.692 48.6691C123.943 48.1187 124.072 47.5121 124.069 46.8977C124.073 46.2775 123.935 45.666 123.668 45.1186C123.413 44.5868 123.032 44.1395 122.564 43.8237C122.086 43.506 121.535 43.3421 120.974 43.3511C120.437 43.3373 119.908 43.4936 119.45 43.8012C118.993 44.1088 118.627 44.5544 118.397 45.084C118.154 45.6472 118.034 46.2639 118.045 46.8862C118.029 47.5324 118.15 48.1739 118.397 48.7613C118.626 49.2933 118.994 49.7398 119.455 50.0447C119.94 50.36 120.498 50.5186 121.062 50.5019Z" fill="#221C26"/>
<path d="M133.531 43.29V42.264H134.62V45.2535H133.506C133.248 44.6802 132.849 44.1961 132.353 43.8548C131.873 43.5217 131.315 43.347 130.746 43.3515C130.209 43.3419 129.683 43.5123 129.237 43.8394C128.792 44.1643 128.434 44.6126 128.201 45.1382C127.951 45.6868 127.82 46.2912 127.82 46.9038C127.82 47.5165 127.951 48.1209 128.201 48.6695C128.444 49.1969 128.809 49.6468 129.258 49.9759C129.707 50.3015 130.235 50.4728 130.774 50.4677C131.435 50.4766 132.078 50.2348 132.593 49.7838C133.148 49.2768 133.55 48.5992 133.746 47.8395L134.839 48.4735C134.583 49.4492 134.031 50.3014 133.274 50.8904C132.5 51.4699 131.579 51.7696 130.64 51.7473C129.863 51.7628 129.096 51.5391 128.43 51.1017C127.793 50.6813 127.274 50.0795 126.928 49.3611C126.567 48.6236 126.382 47.7992 126.389 46.9634C126.374 46.0836 126.563 45.214 126.939 44.435C127.286 43.7196 127.81 43.1246 128.451 42.7174C129.125 42.3021 129.888 42.0912 130.661 42.1065C131.188 42.1016 131.71 42.2046 132.202 42.41C132.689 42.6155 133.139 42.9134 133.531 43.29Z" fill="#221C26"/>
<path d="M141.92 45.6835V43.4395H140.158V50.4405H141.268V51.5932H137.771V50.4405H138.861V43.4279H137.098V45.6835H136.041V42.2637H142.967V45.6835H141.92Z" fill="#221C26"/>
<path d="M152.785 46.8977C152.8 47.7833 152.602 48.6578 152.21 49.4337C151.839 50.1568 151.286 50.7498 150.617 51.1436C149.905 51.5551 149.11 51.7627 148.304 51.7469C147.509 51.7636 146.724 51.5473 146.031 51.1206C145.376 50.7096 144.839 50.1065 144.483 49.3799C144.102 48.6108 143.907 47.7487 143.916 46.8746C143.903 46.014 144.097 45.1647 144.48 44.4116C144.847 43.7007 145.387 43.1142 146.041 42.7171C146.733 42.302 147.512 42.0914 148.301 42.1061C149.116 42.0894 149.921 42.3067 150.635 42.7363C151.297 43.1361 151.843 43.7314 152.21 44.4539C152.594 45.2 152.792 46.0425 152.785 46.8977ZM148.354 50.5019C148.913 50.512 149.462 50.3379 149.929 50.0024C150.385 49.669 150.75 49.2085 150.987 48.6691C151.24 48.1196 151.371 47.5126 151.368 46.8977C151.372 46.2775 151.233 45.666 150.966 45.1186C150.71 44.5876 150.33 44.1405 149.863 43.8237C149.383 43.506 148.83 43.3422 148.269 43.3511C147.732 43.338 147.204 43.4947 146.747 43.8023C146.29 44.1098 145.925 44.555 145.696 45.084C145.451 45.6465 145.33 46.2637 145.343 46.8862C145.327 47.5325 145.447 48.1743 145.696 48.7613C145.925 49.2933 146.293 49.7398 146.753 50.0447C147.236 50.3592 147.791 50.5177 148.354 50.5019Z" fill="#221C26"/>
<path d="M160.403 44.7074C160.419 45.2543 160.254 45.7893 159.937 46.2137C159.598 46.6399 159.142 46.9351 158.636 47.0552L160.145 50.4289H161.203V51.5816H159.282L157.392 47.2358H156.194V50.4174H157.283V51.5701H153.729V50.4174H154.886V43.4279H153.729V42.2751H157.283C158.386 42.2751 159.179 42.4711 159.669 42.863C159.92 43.082 160.118 43.3645 160.246 43.686C160.374 44.0075 160.428 44.3581 160.403 44.7074ZM159.074 44.6844C159.087 44.5038 159.061 44.3223 158.995 44.1556C158.93 43.9888 158.829 43.842 158.7 43.7276C158.341 43.4974 157.927 43.3928 157.512 43.4279H156.183V46.0677H157.427C157.86 46.1034 158.292 45.9934 158.665 45.7526C158.808 45.6244 158.92 45.46 158.991 45.2738C159.062 45.0876 159.09 44.8853 159.074 44.6844Z" fill="#221C26"/>
</svg>
